<svg
    width="200"
    height="200"
    viewBox="0 0 52.916665 52.916666"
    version="1.1"
    id="svg5"
    xml:space="preserve"
    xmlns="http://www.w3.org/2000/svg"
    xmlns:svg="http://www.w3.org/2000/svg"
>
    <path
        style="fill:#e5e5e5;stroke:none;stroke-width:0.264583"
        d="M 0,0 V 1.5875 H 0.529167 V 0.529167 h 1.5875 V 0 H 0 m 3.704167,0 v 0.529167 h 1.5875 V 0 h -1.5875 m 3.175,0 v 0.529167 h 1.5875 V 0 h -1.5875 m 3.175,0 v 0.529167 h 1.5875 V 0 h -1.5875 m 3.175,0 v 0.529167 h 1.5875 V 0 h -1.5875 m 3.175,0 v 0.529167 h 1.5875 V 0 h -1.5875 m 3.175,0 v 0.529167 h 1.5875 V 0 h -1.5875 m 3.175,0 v 0.529167 h 1.5875 V 0 h -1.5875 m 3.175,0 v 0.529167 h 1.5875 V 0 h -1.5875 m 3.175,0 v 0.529167 h 1.5875 V 0 h -1.5875 m 3.175,0 v 0.529167 h 1.587501 V 0 h -1.587501 m 3.175001,0 v 0.529167 h 1.5875 V 0 h -1.5875 m 3.175,0 v 0.529167 h 1.5875 V 0 h -1.5875 m 3.175,0 v 0.529167 h 1.5875 V 0 h -1.5875 m 3.175,0 v 0.529167 h 1.5875 V 0 h -1.5875 m 3.175,0 v 0.529167 h 1.5875 V 0 h -1.5875 m 3.175,0 v 0.529167 h 1.058333 v 1.5875 h 0.529167 V 0 h -1.5875 M 0,3.1750003 v 1.5875 h 0.529167 v -1.5875 H 0 M 52.387501,3.704167 v 1.5875001 h 0.529167 V 3.704167 H 52.387501 M 0,6.3500005 V 7.9375004 H 0.529167 V 6.3500005 H 0 m 52.387501,0.5291666 v 1.5875 h 0.529167 v -1.5875 H 52.387501 M 0,9.5250004 V 11.1125 H 0.529167 V 9.5250004 H 0 m 52.387501,0.5291666 v 1.5875 h 0.529167 v -1.5875 H 52.387501 M 0,12.7 v 1.5875 H 0.529167 V 12.7 H 0 m 52.387501,0.529167 v 1.5875 h 0.529167 v -1.5875 h -0.529167 m -29.785416,1.330272 c -1.191446,0.689584 -1.702912,2.243032 -3.026807,2.743412 -1.799749,0.680244 -4.476803,-0.643917 -5.793264,1.277382 -0.791581,1.155303 -0.552847,2.85197 -0.552847,4.173934 v 8.995834 c 7.9e-5,1.384564 -0.192987,3.121819 1.093655,4.037012 1.341438,0.953823 3.953484,0.460905 5.520928,0.460905 h 13.229168 c 1.604697,0 4.148666,0.476514 5.540904,-0.460905 2.238904,-1.50786 1.338262,-6.211094 1.338262,-8.534929 0,-2.341563 0.777346,-6.418157 -0.531548,-8.452168 -1.344083,-2.088303 -3.657864,-0.796925 -5.553868,-1.497065 -1.389328,-0.513027 -1.920611,-2.082086 -3.185319,-2.743412 -1.39409,-0.728901 -6.711421,-0.791713 -8.079264,0 M 0,15.875 v 1.5875 H 0.529167 V 15.875 H 0 m 52.387501,0.529167 v 1.5875 h 0.529167 v -1.5875 H 52.387501 M 0,19.05 v 1.587501 H 0.529167 V 19.05 H 0 m 52.387501,0.529167 v 1.5875 h 0.529167 v -1.5875 h -0.529167 m -27.252084,0.351552 c 8.856398,-1.555803 11.339513,11.469767 2.38125,12.978157 -8.144272,1.3716 -10.680647,-11.520197 -2.38125,-12.978157 M 0,22.225001 v 1.5875 h 0.529167 v -1.5875 H 0 m 26.458334,0.426878 c -4.82055,0.258207 -4.372107,7.738163 0.529167,7.497922 4.516702,-0.221192 4.034631,-7.74237 -0.529167,-7.497922 m 25.929167,0.102288 v 1.5875 h 0.529167 v -1.5875 H 52.387501 M 0,25.400001 v 1.5875 h 0.529167 v -1.5875 H 0 m 52.387501,0.529166 v 1.5875 h 0.529167 v -1.5875 H 52.387501 M 0,28.575001 v 1.5875 h 0.529167 v -1.5875 H 0 m 52.387501,0.529166 v 1.5875 h 0.529167 v -1.5875 H 52.387501 M 0,31.750001 v 1.5875 h 0.529167 v -1.5875 H 0 m 52.387501,0.529166 v 1.587501 h 0.529167 V 32.279167 H 52.387501 M 0,34.925001 v 1.5875 h 0.529167 v -1.5875 H 0 m 52.387501,0.529167 v 1.5875 h 0.529167 v -1.5875 H 52.387501 M 0,38.100001 v 1.5875 h 0.529167 v -1.5875 H 0 m 52.387501,0.529167 v 1.5875 h 0.529167 v -1.5875 H 52.387501 M 0,41.275001 v 1.5875 h 0.529167 v -1.5875 H 0 m 52.387501,0.529167 v 1.5875 h 0.529167 v -1.5875 H 52.387501 M 0,44.450001 v 1.5875 h 0.529167 v -1.5875 H 0 m 52.387501,0.529167 v 1.5875 h 0.529167 v -1.5875 H 52.387501 M 0,47.625001 v 1.5875 h 0.529167 v -1.5875 H 0 m 52.387501,0.529167 v 1.5875 h 0.529167 v -1.5875 H 52.387501 M 0,50.800001 v 2.116667 H 1.5875 V 52.387501 H 0.529167 v -1.5875 H 0 m 52.387501,0.529167 v 1.058333 h -1.5875 v 0.529167 h 2.116667 v -1.5875 H 52.387501 M 3.175,52.387501 v 0.529167 H 4.7625 V 52.387501 H 3.175 m 3.175,0 v 0.529167 H 7.9375 V 52.387501 H 6.35 m 3.175,0 v 0.529167 h 1.5875 V 52.387501 H 9.525 m 3.175,0 v 0.529167 h 1.5875 V 52.387501 H 12.7 m 3.175,0 v 0.529167 h 1.5875 V 52.387501 H 15.875 m 3.175,0 v 0.529167 h 1.587501 V 52.387501 H 19.05 m 3.175001,0 v 0.529167 h 1.5875 v -0.529167 h -1.5875 m 3.175,0 v 0.529167 h 1.5875 v -0.529167 h -1.5875 m 3.175,0 v 0.529167 h 1.5875 v -0.529167 h -1.5875 m 3.175,0 v 0.529167 h 1.5875 v -0.529167 h -1.5875 m 3.175,0 v 0.529167 h 1.5875 v -0.529167 h -1.5875 m 3.175,0 v 0.529167 h 1.5875 v -0.529167 h -1.5875 m 3.175,0 v 0.529167 h 1.5875 v -0.529167 h -1.5875 m 3.175,0 v 0.529167 h 1.5875 v -0.529167 h -1.5875 m 3.175,0 v 0.529167 h 1.5875 v -0.529167 z"
    />
</svg>
