<svg
    width="300"
    height="300"
    viewBox="0 0 79.374998 79.374999"
    version="1.1"
    id="svg5"
    xml:space="preserve"
    xmlns="http://www.w3.org/2000/svg"
    xmlns:svg="http://www.w3.org/2000/svg"
>
    <path
        style="fill:#e5e5e5;stroke:none;stroke-width:0.396874"
        d="M 0,0 V 2.3812499 H 0.79375046 V 0.79375046 H 3.1750004 V 0 H 0 M 5.5562503,0 V 0.79375046 H 7.9375001 V 0 H 5.5562503 M 10.31875,0 V 0.79375046 H 12.7 V 0 h -2.38125 m 4.7625,0 V 0.79375046 H 17.4625 V 0 h -2.38125 m 4.7625,0 V 0.79375046 H 22.225 V 0 h -2.38125 m 4.762499,0 v 0.79375046 h 2.38125 V 0 h -2.38125 m 4.7625,0 v 0.79375046 h 2.38125 V 0 h -2.38125 m 4.7625,0 v 0.79375046 h 2.38125 V 0 h -2.38125 m 4.7625,0 v 0.79375046 h 2.38125 V 0 h -2.38125 m 4.7625,0 v 0.79375046 h 2.381249 V 0 h -2.381249 m 4.762499,0 V 0.79375046 H 50.8 V 0 H 48.418748 M 53.18125,0 V 0.79375046 H 55.5625 V 0 h -2.38125 m 4.762499,0 v 0.79375046 h 2.38125 V 0 h -2.38125 m 4.7625,0 v 0.79375046 h 2.38125 V 0 h -2.38125 m 4.7625,0 v 0.79375046 h 2.38125 V 0 h -2.38125 m 4.7625,0 v 0.79375046 h 2.38125 V 0 h -2.38125 m 4.7625,0 v 0.79375046 h 1.587499 V 3.1750004 h 0.79375 V 0 H 76.993749 M 0,4.7625002 V 7.1437501 H 0.79375046 V 4.7625002 H 0 m 78.581248,0.7937501 v 2.38125 h 0.793751 v -2.38125 H 78.581248 M 0,9.5250003 V 11.90625 H 0.79375046 V 9.5250003 H 0 M 78.581248,10.31875 V 12.7 h 0.793751 V 10.31875 H 78.581248 M 0,14.2875 v 2.381249 H 0.79375046 V 14.2875 H 0 m 78.581248,0.79375 v 2.38125 h 0.793751 V 15.08125 H 78.581248 M 0,19.049999 v 2.38125 h 0.79375046 v -2.38125 H 0 M 78.581248,19.84375 V 22.225 h 0.793751 v -2.38125 h -0.793751 m -44.678122,1.995408 c -1.787169,1.034375 -2.554368,3.364547 -4.54021,4.115117 -2.699624,1.020366 -6.715204,-0.965875 -8.689896,1.916073 -1.187371,1.732955 -0.82927,4.277955 -0.82927,6.260901 v 13.49375 c 1.18e-4,2.076846 -0.289481,4.682729 1.640482,6.055518 2.012157,1.430735 5.930226,0.691358 8.281392,0.691358 h 19.843751 c 2.407045,0 6.222999,0.714771 8.311355,-0.691358 3.358356,-2.26179 2.007393,-9.31664 2.007393,-12.802393 0,-3.512344 1.166019,-9.627235 -0.797322,-12.678251 C 57.114677,25.067418 53.644006,27.004485 50.8,25.954275 c -2.083992,-0.76954 -2.880917,-3.123129 -4.777979,-4.115117 -2.091134,-1.093352 -10.067131,-1.18757 -12.118895,0 M 0,23.812499 v 2.38125 h 0.79375046 v -2.38125 H 0 m 78.581248,0.79375 v 2.38125 h 0.793751 v -2.38125 H 78.581248 M 0,28.574999 V 30.95625 H 0.79375046 V 28.574999 H 0 m 78.581248,0.79375 v 2.38125 h 0.793751 v -2.38125 h -0.793751 m -40.878124,0.527328 c 13.284596,-2.333704 17.009269,17.20465 3.571875,19.467235 -12.216408,2.0574 -16.02097,-17.280295 -3.571875,-19.467235 M 0,33.3375 v 2.38125 H 0.79375046 V 33.3375 H 0 m 39.687499,0.640317 c -7.230824,0.38731 -6.55816,11.607244 0.793751,11.246883 6.775052,-0.331788 6.051946,-11.613555 -0.793751,-11.246883 m 38.893749,0.153432 v 2.38125 h 0.793751 v -2.38125 H 78.581248 M 0,38.1 v 2.38125 H 0.79375046 V 38.1 H 0 m 78.581248,0.793749 v 2.38125 h 0.793751 v -2.38125 H 78.581248 M 0,42.8625 v 2.38125 H 0.79375046 V 42.8625 H 0 m 78.581248,0.793749 v 2.381249 h 0.793751 V 43.656249 H 78.581248 M 0,47.624999 v 2.38125 h 0.79375046 v -2.38125 H 0 m 78.581248,0.793749 V 50.8 h 0.793751 V 48.418748 H 78.581248 M 0,52.387499 v 2.38125 h 0.79375046 v -2.38125 H 0 m 78.581248,0.793751 v 2.38125 h 0.793751 V 53.18125 H 78.581248 M 0,57.149999 v 2.38125 h 0.79375046 v -2.38125 H 0 m 78.581248,0.79375 v 2.38125 h 0.793751 v -2.38125 H 78.581248 M 0,61.912499 v 2.38125 h 0.79375046 v -2.38125 H 0 m 78.581248,0.79375 v 2.38125 h 0.793751 v -2.38125 H 78.581248 M 0,66.674999 v 2.381249 H 0.79375046 V 66.674999 H 0 m 78.581248,0.79375 v 2.38125 h 0.793751 v -2.38125 H 78.581248 M 0,71.437498 v 2.38125 h 0.79375046 v -2.38125 H 0 m 78.581248,0.793751 v 2.38125 h 0.793751 v -2.38125 H 78.581248 M 0,76.199998 v 3.175001 H 2.3812499 V 78.581248 H 0.79375046 v -2.38125 H 0 m 78.581248,0.793751 v 1.587499 h -2.38125 v 0.793751 h 3.175001 v -2.38125 H 78.581248 M 4.7624998,78.581248 v 0.793751 H 7.1437497 V 78.581248 H 4.7624998 m 4.7624998,0 v 0.793751 H 11.906249 V 78.581248 H 9.5249996 m 4.7624994,0 v 0.793751 h 2.38125 v -0.793751 h -2.38125 m 4.7625,0 v 0.793751 h 2.38125 v -0.793751 h -2.38125 m 4.7625,0 v 0.793751 h 2.38125 v -0.793751 h -2.38125 m 4.7625,0 v 0.793751 h 2.381251 v -0.793751 h -2.381251 m 4.762501,0 v 0.793751 h 2.38125 V 78.581248 H 33.3375 m 4.7625,0 v 0.793751 h 2.38125 V 78.581248 H 38.1 m 4.7625,0 v 0.793751 h 2.38125 V 78.581248 H 42.8625 m 4.762499,0 v 0.793751 h 2.38125 v -0.793751 h -2.38125 m 4.7625,0 v 0.793751 h 2.38125 v -0.793751 h -2.38125 m 4.7625,0 v 0.793751 h 2.38125 v -0.793751 h -2.38125 m 4.7625,0 v 0.793751 h 2.38125 v -0.793751 h -2.38125 m 4.7625,0 v 0.793751 h 2.381249 v -0.793751 h -2.381249 m 4.762499,0 v 0.793751 h 2.38125 v -0.793751 z"
    />
</svg>
